inDegrees=no
DataType=double
version=3
OpenSimVersion=4.4-2022-10-11-798caa840
endheader
time	elv_angle	shoulder_elv	shoulder_rot	elbow_flexion	pro_sup	deviation	flexion
2.4020851434	0.4971029162	1.3571144342	0.4363323152	2.0880103111	0.0000000000	0.0000000000	0.0000000000
2.4062554301	0.4971029162	1.3571144342	0.4363323152	2.0880103111	0.0000000000	0.0000000000	0.0000000000
2.4104257168	0.4971029162	1.3571144342	0.4363323152	2.0880103111	0.0000000000	0.0000000000	0.0000000000
2.4145960035	0.4971029162	1.3571144342	0.4363323152	2.0880103111	0.0000000000	0.0000000000	0.0000000000
2.4187662902	0.4971029162	1.3571144342	0.4363323152	2.0880103111	0.0000000000	0.0000000000	0.0000000000
2.4229365769	0.4971029162	1.3571144342	0.4363323152	2.0880103111	0.0000000000	0.0000000000	0.0000000000
2.4271068636	0.4971029162	1.3571144342	0.4363323152	2.0880103111	0.0000000000	0.0000000000	0.0000000000
2.4312771503	0.4971029162	1.3571144342	0.4363323152	2.0880103111	0.0000000000	0.0000000000	0.0000000000
2.4354474370	0.4971029162	1.3571144342	0.4363323152	2.0880103111	0.0000000000	0.0000000000	0.0000000000
2.4396177237	0.4971029162	1.3571144342	0.4363323152	2.0880103111	0.0000000000	0.0000000000	0.0000000000
2.4437880104	0.4971029162	1.3571144342	0.4363323152	2.0880103111	0.0000000000	0.0000000000	0.0000000000
2.4479582971	0.4971029162	1.3571144342	0.4363323152	2.0880103111	0.0000000000	0.0000000000	0.0000000000
2.4521285838	0.4971029162	1.3571144342	0.4363323152	2.0880103111	0.0000000000	0.0000000000	0.0000000000
2.4562988705	0.4971029162	1.3571144342	0.4363323152	2.0880103111	0.0000000000	0.0000000000	0.0000000000
2.4604691573	0.4971029162	1.3571144342	0.4363323152	2.0880103111	0.0000000000	0.0000000000	0.0000000000
2.4646394440	0.4971029162	1.3571144342	0.4363323152	2.0880103111	0.0000000000	0.0000000000	0.0000000000
2.4688097307	0.4971029162	1.3571144342	0.4363323152	2.0880103111	0.0000000000	0.0000000000	0.0000000000
2.4729800174	0.4971029162	1.3571144342	0.4363323152	2.0880103111	0.0000000000	0.0000000000	0.0000000000
2.4771503041	0.4971029162	1.3571144342	0.4363323152	2.0880103111	0.0000000000	0.0000000000	0.0000000000
2.4813205908	0.4971029162	1.3571144342	0.4363323152	2.0880103111	0.0000000000	0.0000000000	0.0000000000
2.4854908775	0.4971029162	1.3571144342	0.4363323152	2.0880103111	0.0000000000	0.0000000000	0.0000000000
2.4896611642	0.4971029162	1.3571144342	0.4363323152	2.0880103111	0.0000000000	0.0000000000	0.0000000000
2.4938314509	0.4971029162	1.3571144342	0.4363323152	2.0880103111	0.0000000000	0.0000000000	0.0000000000
2.4980017376	0.4971029162	1.3571144342	0.4363323152	2.0880103111	0.0000000000	0.0000000000	0.0000000000
2.5021720243	0.4971029162	1.3571144342	0.4363323152	2.0880103111	0.0000000000	0.0000000000	0.0000000000
2.5063423110	0.4971029162	1.3571144342	0.4363323152	2.0880103111	0.0000000000	0.0000000000	0.0000000000
2.5105125977	0.4971029162	1.3571144342	0.4363323152	2.0880103111	0.0000000000	0.0000000000	0.0000000000
2.5146828844	0.4971029162	1.3571144342	0.4363323152	2.0880103111	0.0000000000	0.0000000000	0.0000000000
2.5188531712	0.4971029162	1.3571144342	0.4363323152	2.0880103111	0.0000000000	0.0000000000	0.0000000000
2.5230234579	0.4971029162	1.3571144342	0.4363323152	2.0880103111	0.0000000000	0.0000000000	0.0000000000
2.5271937446	0.4971029162	1.3571144342	0.4363323152	2.0880103111	0.0000000000	0.0000000000	0.0000000000
2.5313640313	0.4971029162	1.3571144342	0.4363323152	2.0880103111	0.0000000000	0.0000000000	0.0000000000
2.5355343180	0.4971029162	1.3571144342	0.4363323152	2.0880103111	0.0000000000	0.0000000000	0.0000000000
2.5397046047	0.4971029162	1.3571144342	0.4363323152	2.0880103111	0.0000000000	0.0000000000	0.0000000000
2.5438748914	0.4971029162	1.3571144342	0.4363323152	2.0880103111	0.0000000000	0.0000000000	0.0000000000
2.5480451781	0.4971029162	1.3571144342	0.4363323152	2.0880103111	0.0000000000	0.0000000000	0.0000000000
2.5522154648	0.4971029162	1.3571144342	0.4363323152	2.0880103111	0.0000000000	0.0000000000	0.0000000000
2.5563857515	0.4971029162	1.3571144342	0.4363323152	2.0880103111	0.0000000000	0.0000000000	0.0000000000
2.5605560382	0.4971029162	1.3571144342	0.4363323152	2.0880103111	0.0000000000	0.0000000000	0.0000000000
2.5647263249	0.4971029162	1.3571144342	0.4363323152	2.0880103111	0.0000000000	0.0000000000	0.0000000000
2.5688966116	0.4971029162	1.3571144342	0.4363323152	2.0880103111	0.0000000000	0.0000000000	0.0000000000
2.5730668983	0.4971029162	1.3571144342	0.4363323152	2.0880103111	0.0000000000	0.0000000000	0.0000000000
2.5772371851	0.4971029162	1.3571144342	0.4363323152	2.0880103111	0.0000000000	0.0000000000	0.0000000000
2.5814074718	0.4971029162	1.3571144342	0.4363323152	2.0880103111	0.0000000000	0.0000000000	0.0000000000
2.5855777585	0.4971029162	1.3571144342	0.4363323152	2.0880103111	0.0000000000	0.0000000000	0.0000000000
2.5897480452	0.4971029162	1.3571144342	0.4363323152	2.0880103111	0.0000000000	0.0000000000	0.0000000000
2.5939183319	0.4971029162	1.3571144342	0.4363323152	2.0880103111	0.0000000000	0.0000000000	0.0000000000
2.5980886186	0.4971029162	1.3571144342	0.4363323152	2.0880103111	0.0000000000	0.0000000000	0.0000000000
2.6022589053	0.4971029162	1.3571144342	0.4363323152	2.0880103111	0.0000000000	0.0000000000	0.0000000000
2.6064291920	0.4971029162	1.3571144342	0.4363323152	2.0880103111	0.0000000000	0.0000000000	0.0000000000
2.6105994787	0.4971029162	1.3571144342	0.4363323152	2.0880103111	0.0000000000	0.0000000000	0.0000000000
2.6147697654	0.4971029162	1.3571144342	0.4363323152	2.0880103111	0.0000000000	0.0000000000	0.0000000000
2.6189400521	0.4971029162	1.3571144342	0.4363323152	2.0880103111	0.0000000000	0.0000000000	0.0000000000
2.6231103388	0.4971029162	1.3571144342	0.4363323152	2.0880103111	0.0000000000	0.0000000000	0.0000000000
2.6272806255	0.4971029162	1.3571144342	0.4363323152	2.0880103111	0.0000000000	0.0000000000	0.0000000000
2.6314509123	0.4971029162	1.3571144342	0.4363323152	2.0880103111	0.0000000000	0.0000000000	0.0000000000
2.6356211990	0.4971029162	1.3571144342	0.4363323152	2.0880103111	0.0000000000	0.0000000000	0.0000000000
2.6397914857	0.4971029162	1.3571144342	0.4363323152	2.0880103111	0.0000000000	0.0000000000	0.0000000000
2.6439617724	0.4971029162	1.3571144342	0.4363323152	2.0880103111	0.0000000000	0.0000000000	0.0000000000
2.6481320591	0.4971029162	1.3571144342	0.4363323152	2.0880103111	0.0000000000	0.0000000000	0.0000000000
2.6523023458	0.4971029162	1.3571144342	0.4363323152	2.0880103111	0.0000000000	0.0000000000	0.0000000000
2.6564726325	0.4971042871	1.3571134806	0.4363323152	2.0880076885	0.0000000000	0.0000000000	0.0000000000
2.6606429192	0.4971140623	1.3571065664	0.4363323152	2.0879883766	0.0000000000	0.0000000000	0.0000000000
2.6648132059	0.4971401095	1.3570879698	0.4363323152	2.0879375935	0.0000000000	0.0000000000	0.0000000000
2.6689834926	0.4971899390	1.3570526838	0.4363323152	2.0878400803	0.0000000000	0.0000000000	0.0000000000
2.6731537793	0.4972707033	1.3569955826	0.4363323152	2.0876817703	0.0000000000	0.0000000000	0.0000000000
2.6773240660	0.4973891377	1.3569117785	0.4363323152	2.0874497890	0.0000000000	0.0000000000	0.0000000000
2.6814943527	0.4975515902	1.3567966223	0.4363323152	2.0871317387	0.0000000000	0.0000000000	0.0000000000
2.6856646394	0.4977640212	1.3566462994	0.4363323152	2.0867159367	0.0000000000	0.0000000000	0.0000000000
2.6898349262	0.4980320036	1.3564567566	0.4363323152	2.0861914158	0.0000000000	0.0000000000	0.0000000000
2.6940052129	0.4983607829	1.3562244177	0.4363323152	2.0855481625	0.0000000000	0.0000000000	0.0000000000
2.6981754996	0.4987553060	1.3559457064	0.4363323152	2.0847764015	0.0000000000	0.0000000000	0.0000000000
2.7023457863	0.4992201626	1.3556175232	0.4363323152	2.0838675499	0.0000000000	0.0000000000	0.0000000000
2.7065160730	0.4997594953	1.3552372456	0.4363323152	2.0828135014	0.0000000000	0.0000000000	0.0000000000
2.7106863597	0.5003773570	1.3548021317	0.4363323152	2.0816066265	0.0000000000	0.0000000000	0.0000000000
2.7148566464	0.5010772347	1.3543097973	0.4363323152	2.0802402496	0.0000000000	0.0000000000	0.0000000000
2.7190269331	0.5018627048	1.3537582159	0.4363323152	2.0787079334	0.0000000000	0.0000000000	0.0000000000
2.7231972198	0.5027366281	1.3531454802	0.4363323152	2.0770041943	0.0000000000	0.0000000000	0.0000000000
2.7273675065	0.5037019253	1.3524699211	0.4363323152	2.0751240253	0.0000000000	0.0000000000	0.0000000000
2.7315377932	0.5047610402	1.3517302275	0.4363323152	2.0730626583	0.0000000000	0.0000000000	0.0000000000
2.7357080799	0.5059163570	1.3509253263	0.4363323152	2.0708162785	0.0000000000	0.0000000000	0.0000000000
2.7398783666	0.5071698427	1.3500542641	0.4363323152	2.0683817863	0.0000000000	0.0000000000	0.0000000000
2.7440486533	0.5085233450	1.3491160870	0.4363323152	2.0657560825	0.0000000000	0.0000000000	0.0000000000
2.7482189401	0.5099783540	1.3481106758	0.4363323152	2.0629367828	0.0000000000	0.0000000000	0.0000000000
2.7523892268	0.5115363002	1.3470376730	0.4363323152	2.0599219799	0.0000000000	0.0000000000	0.0000000000
2.7565595135	0.5131981969	1.3458970785	0.4363323152	2.0567104816	0.0000000000	0.0000000000	0.0000000000
2.7607298002	0.5149649978	1.3446888924	0.4363323152	2.0533010960	0.0000000000	0.0000000000	0.0000000000
2.7649000869	0.5168374181	1.3434135914	0.4363323152	2.0496938229	0.0000000000	0.0000000000	0.0000000000
2.7690703736	0.5188159943	1.3420718908	0.4363323152	2.0458881855	0.0000000000	0.0000000000	0.0000000000
2.7732406603	0.5209009051	1.3406646252	0.4363323152	2.0418848991	0.0000000000	0.0000000000	0.0000000000
2.7774109470	0.5230923891	1.3391926289	0.4363323152	2.0376844406	0.0000000000	0.0000000000	0.0000000000
2.7815812337	0.5253902078	1.3376573324	0.4363323152	2.0332884789	0.0000000000	0.0000000000	0.0000000000
2.7857515204	0.5277941227	1.3360598087	0.4363323152	2.0286982059	0.0000000000	0.0000000000	0.0000000000
2.7899218071	0.5303037167	1.3344019651	0.4363323152	2.0239162445	0.0000000000	0.0000000000	0.0000000000
2.7940920938	0.5329182744	1.3326854706	0.4363323152	2.0189440250	0.0000000000	0.0000000000	0.0000000000
2.7982623805	0.5356370211	1.3309121132	0.4363323152	2.0137851238	0.0000000000	0.0000000000	0.0000000000
2.8024326672	0.5384588242	1.3290840387	0.4363323152	2.0084424019	0.0000000000	0.0000000000	0.0000000000
2.8066029540	0.5413825512	1.3272036314	0.4363323152	2.0029191971	0.0000000000	0.0000000000	0.0000000000
2.8107732407	0.5444068313	1.3252732754	0.4363323152	1.9972194433	0.0000000000	0.0000000000	0.0000000000
2.8149435274	0.5475300550	1.3232955933	0.4363323152	1.9913469553	0.0000000000	0.0000000000	0.0000000000
2.8191138141	0.5507505536	1.3212730885	0.4363323152	1.9853062630	0.0000000000	0.0000000000	0.0000000000
2.8232841008	0.5540663600	1.3192088604	0.4363323152	1.9791021347	0.0000000000	0.0000000000	0.0000000000
2.8274543875	0.5574753881	1.3171055317	0.4363323152	1.9727394581	0.0000000000	0.0000000000	0.0000000000
2.8316246742	0.5609754324	1.3149665594	0.4363323152	1.9662233591	0.0000000000	0.0000000000	0.0000000000
2.8357949609	0.5645639896	1.3127950430	0.4363323152	1.9595596790	0.0000000000	0.0000000000	0.0000000000
2.8399652476	0.5682384372	1.3105938435	0.4363323152	1.9527540207	0.0000000000	0.0000000000	0.0000000000
2.8441355343	0.5719959140	1.3083670139	0.4363323152	1.9458123446	0.0000000000	0.0000000000	0.0000000000
2.8483058210	0.5758336186	1.3061172962	0.4363323152	1.9387413263	0.0000000000	0.0000000000	0.0000000000
2.8524761077	0.5797483325	1.3038485050	0.4363323152	1.9315470457	0.0000000000	0.0000000000	0.0000000000
2.8566463944	0.5837366581	1.3015642166	0.4363323152	1.9242367744	0.0000000000	0.0000000000	0.0000000000
2.8608166811	0.5877953768	1.2992676497	0.4363323152	1.9168169498	0.0000000000	0.0000000000	0.0000000000
2.8649869679	0.5919206142	1.2969626188	0.4363323152	1.9092950821	0.0000000000	0.0000000000	0.0000000000
2.8691572546	0.5961086750	1.2946527004	0.4363323152	1.9016786814	0.0000000000	0.0000000000	0.0000000000
2.8733275413	0.6003556848	1.2923412323	0.4363323152	1.8939747810	0.0000000000	0.0000000000	0.0000000000
2.8774978280	0.6046572328	1.2900321484	0.4363323152	1.8861919641	0.0000000000	0.0000000000	0.0000000000
